# xmcd
#
# Track frame offsets:
# 150
# 10099
# 26005
# 51825
# 65935
#
# Disc length: 1097 seconds
#
#
# Revision: 0
# Processed by: cddbd v1.5.2PL0 Copyright (c) Steve Scherf et al.
# Submitted via: FreeRIP 2.951 
#
DISCID=3f044705
DTITLE=Blues Masters - You Gotta Walk It Like You Talk It (or else you'll lose that beat)
DYEAR=1997
DGENRE=blues
TTITLE0=Let's Have A Party
TTITLE1=Your Cash Ain't Nothing But Trash
TTITLE2=I Can't Hold On Much Longer
TTITLE3=Good Good Loving
TTITLE4=Is You Is
EXTD=
EXTT0=Robinson
EXTT1=Charles Calhoun
EXTT2=Paul Jones
EXTT3=James Brown
EXTT4=Billy Austin, Louis Jordan
PLAYORDER=
